<?xml version="1.0" encoding="utf-8"?>
<!-- Generator: Adobe Illustrator 23.0.1, SVG Export Plug-In . SVG Version: 6.00 Build 0)  -->
<svg version="1.1" xmlns="http://www.w3.org/2000/svg" xmlns:xlink="http://www.w3.org/1999/xlink" x="0px" y="0px"
	 viewBox="0 0 728 90" style="enable-background:new 0 0 728 90;" xml:space="preserve">
<style type="text/css">
	.st0{fill:#D5F0FF;}
	.st1{fill:#FFFFFF;}
	.st2{fill:#F2F9FC;}
	.st3{fill:#00A900;}
	.st4{fill:#65CC00;}
	.st5{fill:#525252;}
	.st6{fill:#5EB600;}
	.st7{display:none;fill:none;stroke:#000000;}
</style>
<g id="Layer_1">
	<g>
		<rect y="-0.5" class="st0" width="727.3" height="91"/>
		<path class="st1" d="M210-0.5h-4.9h-6.9h-36.8h-3.6H59c-1.9,4-3.2,8.4-3.7,13.1c-0.6-0.1-1.1-0.1-1.7-0.1
			c-9.2,0-16.6,7.4-16.6,16.6c0,1.4,0.2,2.7,0.5,4c1.8,7.2,8.3,12.6,16.1,12.6c3.8,0,7.2-1.3,10-3.4c7.5,9.7,19.2,15.9,32.4,15.9
			c6.4,0,12.4-1.5,17.8-4.1c1.2,1.6,2.5,3.2,3.9,4.7c11.3,12.3,27.4,20,45.4,20c1.2,0,2.3,0,3.5-0.1c0,0,0,0,0,0h0
			c3.4-0.2,6.8-0.7,10.1-1.4c0,0,0,0,0,0c13.3-3,25-10.3,33.5-20.5c4.4-5.2,7.9-11.1,10.4-17.6c4.7,4,10.7,6.4,17.3,6.4
			c4.4,0,8.5-1.1,12.2-3c-0.3,1.4-0.4,2.8-0.4,4.2c0,3.9,1,7.6,2.7,10.8c3.8,7,11.3,11.8,19.9,11.8c7.8,0,14.7-3.9,18.8-10
			c0.5-0.2,0.9-0.3,1.3-0.6c4.6-2.1,8.4-5.8,10.5-10.3c3.3,5.9,9.5,9.9,16.8,9.9c3.2,0,6.2-0.8,8.9-2.2c0.4,1.4,1,2.8,1.7,4.1
			c2.6,4.5,6.9,7.8,12.1,9.1c1.5,0.4,3,0.6,4.6,0.6c1.5,0,2.9-0.2,4.2-0.5c4.8-1.1,8.9-4,11.6-7.9c2-3,3.2-6.5,3.3-10.4
			c0-0.1,0-0.3,0-0.4c0-10.6-8.6-19.2-19.2-19.2c-3.2,0-6.2,0.8-8.9,2.2c-2.3-8-9.7-13.8-18.4-13.8c-0.1,0-0.1,0-0.2,0
			c0.1-0.8,0.2-1.7,0.2-2.6c0-9.8-8-17.8-17.8-17.8c-9.3,0-16.9,7.1-17.7,16.1c-0.1,0.6-0.1,1.1-0.1,1.7c0,0,0,0,0,0h-0.1
			c0.1-0.6,0.1-1.2,0.1-1.8c0-7.2-5.9-13.1-13.1-13.1c-3.6,0-6.9,1.5-9.3,3.9c-1.4-2.7-3.3-5.2-5.5-7.3H231H210z"/>
		<path class="st1" d="M630.8,49.3c0,1-0.1,2.1-0.4,3c-0.8,2.8-2.5,5.3-4.9,6.8h0c-1.4,0.9-2.9,1.6-4.6,1.8h0
			c-0.6,0.1-1.3,0.2-1.9,0.2c-0.1,0-0.2,0-0.3,0h0c-1.6,0-3.2-0.4-4.6-1.1c-2-0.9-3.7-2.3-4.9-4.1c-1.5,2.1-3.5,3.8-5.8,4.9
			c-2.2,1.1-4.6,1.7-7.2,1.7c-1.9,0-3.7-0.3-5.3-0.9c0,0,0,0,0,0c-2.9-1-5.4-2.8-7.2-5.1c-1.4,2.3-3.2,4.2-5.3,5.8
			c-0.8,0.7-1.7,1.3-2.7,1.8h0c-3.4,2-7.3,3.1-11.4,3.1c-3,0-7.1-0.5-11.5-1.4c-2.5-0.5-5.1-1.2-7.7-2c-3.6-1.1-7.2-2.4-10.5-3.9
			c-2.9,2.2-6.4,3.5-10.3,3.5c-4.5,0-8.6-1.8-11.7-4.6c-0.1-0.1-0.3-0.3-0.4-0.4c-0.1,0.1-0.1,0.3-0.2,0.4c-1.1,2.1-2.4,4.1-4,5.9
			c-1.4,1.7-3,3.3-4.7,4.6l0,0c-1.5,1.2-3.1,2.3-4.8,3.3h0c-1.1,0.7-2.3,1.3-3.6,1.8h0c-0.3,0.2-0.6,0.3-1,0.4h0
			c-3.9,1.5-8,2.3-12.4,2.3c-3.7,0-7.2-0.6-10.5-1.6c-1-0.3-2.1-0.7-3.1-1.2c-1.5-0.6-2.9-1.3-4.2-2.2c0,0,0,0,0,0c0,0,0,0,0,0h0
			c-3.3-2-6.3-4.6-8.8-7.6c-0.1-0.1-0.2-0.2-0.3-0.3c0,0.1-0.1,0.2-0.1,0.3c-1.3,2.8-3.2,5.2-5.6,7.2c-0.6,0.6-1.3,1.1-2,1.5l0,0
			c-0.4,0.3-0.8,0.5-1.2,0.7c-1.4,0.8-3,1.5-4.6,2c-2.1,0.7-4.3,1-6.6,1c-2.1,0-4.1-0.3-6-0.8c-1.3-0.4-2.5-0.8-3.7-1.4h0
			c-0.8-0.4-1.5-0.8-2.2-1.2h0c-1.2-0.8-2.3-1.7-3.4-2.6c-0.6-0.6-1.3-1.3-1.8-1.9c-0.8,0.7-1.7,1.3-2.6,1.8
			c-1.6,0.8-3.4,1.3-5.3,1.3c-2.1,0-4.1-0.6-5.8-1.5c-2.8-1.6-4.9-4.3-5.7-7.5c-0.2-0.9-0.3-1.8-0.3-2.8c0-2.1,0.5-4,1.5-5.7
			c2-3.7,5.9-6.1,10.4-6.1c1.3,0,2.5,0.2,3.7,0.6c2.6-9.4,11.2-16.3,21.4-16.3c4.9,0,9.4,1.6,13,4.2c0.6-3.7,1.8-7.2,3.5-10.4
			c-3.7-2-6.2-5.9-6.2-10.4c0-6.6,5.3-11.9,11.9-11.9c4.8,0,8.9,2.8,10.8,6.9c4.3-1.9,9.1-3,14.1-3c5.7,0,11,1.4,15.8,3.8
			c-0.3-1.8-0.5-3.6-0.5-5.4c0-2.4,0.3-4.7,0.8-6.9h65.3c3.5,4.7,5.5,10.5,5.5,16.7c0,1.8-0.2,3.5-0.5,5.2
			c7.8,1.2,14.2,6.3,17.3,13.3c2.9-2.7,6.8-4.4,11-4.4c6.8,0,12.6,4.2,15,10.1c2.1-1.9,4.8-3,7.8-3
			C625.5,37.4,630.8,42.8,630.8,49.3z"/>
		<path class="st2" d="M157.8-0.5h3.6c-3,2.3-4.3,4.8-4.3,4C157.1,2.1,157.4,0.8,157.8-0.5z"/>
		<path class="st2" d="M210-0.5c-1.7,0.9-3.1,1.1-4.5,0.3c-0.2-0.1-0.3-0.2-0.5-0.3h-6.9c0.8,1.9,1.1,3.3,1.4,3.3
			c0.3,0,0.7-0.1,1-0.1c1.6,0,3.1,0.4,4.5,1.2c2.2,1.3,4.4-0.1,7.7-2.5c1.4-1,3-1.6,4.8-1.9c0.7-0.1,1.4-0.2,2.2-0.2
			c1,0,2,0.1,2.9,0.2C230.6,1,234,9.2,234,7.8c0-3.2-1.1-6.1-3-8.3H210z"/>
		<path class="st2" d="M265.6,25.7c1.4,0.5,3.9-2.1,7.6-4.5c2.2-1.4,4.8-2.2,7.6-2.2c4.2,0,8,1.8,10.6,4.6c3.4,3.7,3.8,7.7,3.9,7.2
			c0-0.3,0-0.6,0-0.9c0-8-6.5-14.5-14.5-14.5c-2.8,0-5.4,0.8-7.6,2.2c-3.8,2.3-6.3,5-7.6,4.5c-0.8-0.3-1.7-0.5-2.6-0.5
			c-4.1,0-7.5,3.4-7.5,7.5c0,0.3,0,0.6,0.1,0.9c0.1,0.5,0.7-1.5,2.8-3.2c1.3-1,2.9-1.6,4.6-1.6C263.9,25.3,264.8,25.4,265.6,25.7z"
			/>
		<path class="st2" d="M564.3,32.6c-2.6,0.1-5,0.8-7,2.2c-3.4,2.3-5.5,3.8-7.7,2.5c-1.3-0.8-2.8-1.2-4.4-1.2c-0.3,0-0.7,0-1,0.1
			c-0.5,0.1-0.9-4.3-4.3-7.7c-2-2-4.8-3.2-7.9-3.2c-2.2,0-4.3,0.7-6.1,1.8c-3,1.9-5.4,3.8-7.3,3.2c-1.1-0.4-2.3-0.6-3.5-0.6
			c-9.6,0.3-13.3,8.7-13.3,7.3c0-6.6,5.3-11.9,11.9-11.9c1.3,0,2.5,0.2,3.7,0.6c2,0.6,4.6-1.3,7.7-3.3c1.8-1.2,4-1.9,6.4-1.9
			c3.3,0,6.3,1.4,8.5,3.6c3.5,3.6,3.9,8.1,4.5,8c0.3,0,0.7-0.1,1.1-0.1c1.7,0,3.3,0.5,4.7,1.3c2.3,1.4,4.6-0.1,8.2-2.6
			c2.1-1.4,4.6-2.3,7.4-2.3c7.2,0,13,5.8,13,13C578.6,42.7,574.4,32.4,564.3,32.6z"/>
		<path class="st2" d="M464.8,39.9c1.4,0.5,3.9-2.1,7.6-4.5c2.2-1.4,4.8-2.2,7.6-2.2c4.2,0,8,1.8,10.6,4.6c3.4,3.7,3.8,7.7,3.9,7.2
			c0-0.3,0-0.6,0-0.9c0-8-6.5-14.5-14.5-14.5c-2.8,0-5.4,0.8-7.6,2.2c-3.8,2.3-6.3,5-7.6,4.5c-0.8-0.3-1.7-0.5-2.6-0.5
			c-4.1,0-7.5,3.4-7.5,7.5c0,0.3,0,0.6,0.1,0.9c0.1,0.5,0.7-1.5,2.8-3.2c1.3-1,2.9-1.6,4.6-1.6C463.1,39.4,464,39.6,464.8,39.9z"/>
		<path class="st2" d="M528.5,14.3c-1.4,0.5-3.9-2.1-7.6-4.5c-2.2-1.4-4.8-2.2-7.6-2.2c-4.2,0-8,1.8-10.6,4.6
			c-3.4,3.7-3.8,7.7-3.9,7.2c0-0.3,0-0.6,0-0.9c0-8,6.5-14.5,14.5-14.5c2.8,0,5.4,0.8,7.6,2.2c3.8,2.3,6.3,5,7.6,4.5
			c0.8-0.3,1.7-0.5,2.6-0.5c4.1,0,7.5,3.4,7.5,7.5c0,0.3,0,0.6-0.1,0.9c-0.1,0.5-0.7-1.5-2.8-3.2c-1.3-1-2.9-1.6-4.6-1.6
			C530.2,13.8,529.3,13.9,528.5,14.3z"/>
		<path class="st3" d="M727.3,53.5v37H230.4c3.4-1,6.9-1.9,10.5-2.8l0,0c29.8-7.3,67-12.1,113.2-11.5c15.8,0.2,31.6,0.3,47.4,0.2h0
			c9,0,17.9-0.1,26.8-0.2c4.2,0,8.5-0.1,12.7-0.2c10-0.2,20-0.4,29.9-0.6c7.7-0.2,15.4-0.4,23-0.7c0,0,0,0,0,0
			c4.3-0.2,8.6-0.3,12.9-0.5c0,0,0.1,0,0.2,0c67-2.5,127.7-7,171.9-12.6c0,0,0.1,0,0.1,0C698.7,59.1,715.2,56.4,727.3,53.5z"/>
		<path class="st4" d="M727.3,37.4v16.2l-10.7,0.8l-8.2,0.6L621,61l-0.1,0h0l-2.1,0.1h0l-43.1,3l0,0h0l-22.9,1.6l-49.4,3.5l0,0
			l-39.7,2.8h0l-0.3,0l-16.5,1.2l0,0l-8.8,0.6l-13.4,0.9h0l-23.1,1.6h0L240.9,87.7l0,0l-39.3,2.8H0V35.7c0,0,12.9-1.5,37.6-2.6
			C90.1,30.7,195.9,30,345,48.8c7.2,0.9,14.3,1.7,21.3,2.5c11,1.2,21.8,2.2,32.5,3.1c40.3,3.3,78.3,4.5,113,4.3h0.6
			c45.4-0.3,85.3-3,118-6.4C691.3,46,727.3,37.4,727.3,37.4z"/>
		<path class="st5" d="M727.3,45.6v12.8c0,0-97.2,27.2-268.8,26.3c-57.8-0.3-103.9,2-140.5,5.7H0v-2.4
			c25.1-17.4,66.7-25.8,117.9-29.3c28.3-2,59.5-2.4,92.6-2c13.8,0.2,27.9,0.5,42.2,0.9c13.1,0.4,26.5,0.8,40,1.3
			c12.5,0.5,25.2,1,37.9,1.5c10.8,0.4,21.6,0.9,32.5,1.3c11.5,0.4,23.1,0.9,34.7,1.3c16.9,0.6,33.8,1,50.5,1.4
			c2.1,0,4.1,0.1,6.1,0.1c0.1,0,0.3,0,0.4,0c18.6,0.3,36.3,0.3,53.1,0.1c12.9-0.2,25.2-0.4,37-0.8c11.6-0.4,22.7-0.9,33.3-1.4
			c4.3-0.2,8.5-0.5,12.6-0.7c0,0,0,0,0,0c4.3-0.3,8.5-0.5,12.6-0.8c3.6-0.3,7.2-0.5,10.7-0.8c3.9-0.3,7.8-0.6,11.5-0.9c0,0,0,0,0,0
			C691.9,53.5,727.3,45.6,727.3,45.6z"/>
		<path class="st1" d="M727.3,50.7v1c-3.5,0.9-7.1,1.7-10.7,2.6c-12.4,2.8-25,5.3-37.8,7.4c0,0-0.1,0-0.1,0
			C623.2,70.8,564,73.8,506.8,74.3c-0.1,0-0.1,0-0.2,0c-4,0-8,0-11.9,0.1c0,0,0,0,0,0c-9.1,0-18.1,0-27-0.1
			c-7.5-0.1-14.9-0.2-22.2-0.3c-2.5,0-5.1-0.1-7.6-0.1c-5.2-0.1-10.4-0.2-15.6-0.3c0,0,0,0,0,0c-62.1-1.3-117.4-3.3-156.8-0.4
			c-47.5,3.5-91.4,7.5-130.1,17.4h-24.9c17.3-5,36.2-8.8,56.2-11.8c0,0,0,0,0,0h0c3.3-0.5,6.7-1,10-1.4c0,0,0,0,0,0
			c50.4-6.6,107.4-8.1,165.7-7.7c2.9,0,5.8,0,8.8,0.1c17.3,0.2,34.7,0.5,52,0.9c3.7,0.1,7.5,0.2,11.2,0.3c1.5,0,3,0.1,4.4,0.1
			c10,0.3,19.9,0.5,29.8,0.8c4.7,0.1,9.4,0.3,14.1,0.4c0.1,0,0.2,0,0.3,0c0.1,0,0.2,0,0.3,0c0,0,0,0,0,0c11.9,0.3,23.5,0.5,34.8,0.5
			c0,0,0,0,0,0c104.3,0.2,177.5-11.3,210.1-17.7C720.8,52.4,727.3,50.7,727.3,50.7z"/>
		<path class="st6" d="M727.5,83.7c0,0-0.1,0-0.2,0c-4.9-0.5-35.7-2.7-82.4,6.8h82.4L727.5,83.7z"/>
	</g>
</g>
<g id="Layer_2">
	<g>
		<g>
			<g>
				<path d="M8.6,63.1c-1.6-4-2.4-5.9-4-9.8c0.8-0.2,1.1-0.2,1.9-0.4c0.8,2,1.1,3,1.9,5c0.5,1.2,0.9,2.5,1.2,3.5c0,0,0,0,0,0
					c0.2-1.1,0.6-2.4,1-3.9c0.6-2.3,1-3.4,1.6-5.8c0.7-0.2,1.1-0.2,1.9-0.4c0.8,2,1.2,3,1.9,5.1c0.5,1.2,0.9,2.4,1.1,3.5
					c0,0,0,0,0,0c0.2-1.2,0.6-2.5,0.9-3.9c0.6-2.3,1-3.5,1.6-5.8c0.7-0.1,1.1-0.2,1.8-0.4c-1.4,4.6-2.1,7-3.4,11.6
					c-0.7,0.1-1.1,0.2-1.9,0.4c-0.8-2.1-1.2-3.2-2-5.2c-0.5-1.3-0.8-2.3-1.1-3.3c0,0,0,0,0,0c-0.2,1.1-0.5,2.2-0.9,3.7
					c-0.7,2.4-1,3.6-1.7,5.9C9.8,62.8,9.4,62.9,8.6,63.1z"/>
				<path d="M28.6,59.3c-0.1-0.4-0.1-0.6-0.2-1c0,0,0,0-0.1,0c-0.5,0.7-1.6,1.5-3,1.7c-2,0.4-3.1-0.6-3.2-1.7c-0.1-1.9,2-3.3,5.9-4
					c0-0.1,0-0.1,0-0.2c0-0.6-0.3-1.8-2.4-1.4c-0.9,0.2-1.9,0.6-2.6,1.1c-0.2-0.3-0.3-0.5-0.5-0.9c0.8-0.6,2-1.1,3.2-1.3
					c3.1-0.6,3.9,0.9,3.9,2.5c0.1,1.2,0.1,1.8,0.1,3c0,0.7,0.1,1.3,0.3,1.9C29.6,59.2,29.2,59.2,28.6,59.3z M28.1,55.4
					c-2,0.3-4.2,1-4.1,2.5c0,0.9,0.8,1.2,1.8,1c1.3-0.2,2.1-1,2.4-1.8c0.1-0.2,0.1-0.3,0.1-0.5C28.2,56.2,28.2,55.9,28.1,55.4z"/>
				<path d="M32.7,52.8c0-0.8-0.1-1.5-0.2-2.1c0.6-0.1,1-0.2,1.6-0.3c0.1,0.5,0.1,0.8,0.2,1.3c0,0,0,0,0,0c0.5-0.8,1.6-1.8,3.2-2.1
					c1.4-0.3,3.6,0,3.7,2.8c0.1,1.9,0.1,2.9,0.2,4.8c-0.7,0.1-1.1,0.2-1.8,0.3c-0.1-1.8-0.1-2.8-0.2-4.6c-0.1-1.3-0.7-2.3-2.4-2
					c-1.2,0.2-2.1,1.1-2.4,1.9c-0.1,0.2-0.1,0.4-0.1,0.7c0.1,1.9,0.1,2.9,0.2,4.8c-0.7,0.1-1.1,0.2-1.8,0.3
					C32.9,56.2,32.8,55.1,32.7,52.8z"/>
				<path d="M46.1,45.9c0,0.9,0.1,1.4,0.1,2.3c1-0.2,1.6-0.3,2.6-0.5c0,0.5,0,0.7,0,1.1c-1,0.2-1.6,0.3-2.6,0.4
					c0.1,1.7,0.1,2.6,0.2,4.4c0,1,0.4,1.5,1.4,1.4c0.5-0.1,0.8-0.2,1-0.3c0.1,0.4,0.1,0.7,0.1,1.1c-0.3,0.2-0.9,0.3-1.6,0.5
					c-0.8,0.1-1.5,0-2-0.3c-0.5-0.4-0.8-1-0.8-2c-0.1-1.8-0.1-2.6-0.2-4.4c-0.6,0.1-0.9,0.2-1.5,0.3c0-0.4,0-0.7,0-1.1
					c0.6-0.1,0.9-0.2,1.5-0.3c0-0.8-0.1-1.2-0.1-1.9C45.1,46.3,45.4,46.1,46.1,45.9z"/>
				<path d="M57.3,43.9c0,0.9,0.1,1.4,0.1,2.4c1-0.2,1.6-0.3,2.6-0.4c0,0.5,0,0.7,0,1.1c-1,0.2-1.6,0.3-2.6,0.4
					c0.1,1.8,0.1,2.7,0.2,4.5c0,1,0.4,1.5,1.4,1.4c0.5-0.1,0.8-0.2,1.1-0.3c0.1,0.4,0.1,0.7,0.1,1.1c-0.3,0.2-0.9,0.3-1.6,0.4
					c-0.8,0.1-1.5,0-2-0.3c-0.5-0.4-0.8-1.1-0.8-2c-0.1-1.8-0.1-2.7-0.2-4.5c-0.6,0.1-0.9,0.2-1.6,0.3c0-0.5,0-0.7,0-1.1
					c0.6-0.1,0.9-0.2,1.6-0.3c0-0.8-0.1-1.2-0.1-2C56.3,44.3,56.6,44.2,57.3,43.9z"/>
				<path d="M71.2,48.3c0.1,3.1-2.4,4.8-4.8,5.2c-2.7,0.4-4.9-1-5-3.6c-0.1-2.8,2-4.8,4.8-5.2C69.1,44.2,71.1,45.7,71.2,48.3z
					 M63.3,49.5c0.1,1.8,1.4,3,3.2,2.8c1.7-0.3,3-1.8,2.9-3.7c-0.1-1.4-1-3.1-3.1-2.8C64.1,46.2,63.2,48,63.3,49.5z"/>
				<path d="M86.3,37.8c0.2,4.2,0.3,6.3,0.4,10.4c0,0.8,0.1,1.6,0.2,2.2c-0.7,0.1-1,0.1-1.6,0.2c-0.1-0.6-0.1-0.9-0.1-1.5
					c0,0,0,0,0,0c-0.5,1-1.7,1.9-3.4,2.1c-2.4,0.3-4.4-1.2-4.5-3.8c-0.1-2.8,1.9-4.9,4.3-5.2c1.5-0.2,2.6,0.3,3.1,0.9c0,0,0,0,0,0
					c-0.1-2.1-0.1-3.1-0.2-5.1C85.2,38,85.5,38,86.3,37.8z M84.7,45.6c0-0.2,0-0.5-0.1-0.6c-0.3-1-1.3-1.6-2.7-1.4
					c-1.9,0.3-2.9,1.8-2.9,3.7c0.1,1.7,1.1,3,3.1,2.8c1.2-0.2,2.3-1,2.6-2.2c0.1-0.2,0.1-0.4,0.1-0.7C84.8,46.5,84.8,46.2,84.7,45.6
					z"/>
				<path d="M89.6,44.2c0-1-0.1-1.9-0.2-2.7c0.6-0.1,1-0.1,1.6-0.2c0.1,0.7,0.1,1,0.1,1.7c0,0,0,0,0.1,0c0.4-1.2,1.5-2.1,2.7-2.3
					c0.2,0,0.4,0,0.5,0c0,0.6,0,0.9,0.1,1.5c-0.2,0-0.4,0-0.6,0c-1.3,0.2-2.2,1.1-2.4,2.4c0,0.2-0.1,0.5-0.1,0.7
					c0.1,1.9,0.1,2.8,0.2,4.6c-0.7,0.1-1.1,0.1-1.8,0.2C89.7,47.8,89.7,46.6,89.6,44.2z"/>
				<path d="M98.3,37.8c0,0.5-0.4,1-1.1,1.1C96.5,39,96,38.7,96,38.1c0-0.6,0.4-1.1,1.1-1.2C97.8,36.9,98.2,37.3,98.3,37.8z
					 M96.7,49.3c-0.1-3.5-0.2-5.3-0.4-8.8c0.7-0.1,1.1-0.1,1.8-0.2c0.1,3.5,0.2,5.3,0.4,8.8C97.8,49.2,97.4,49.2,96.7,49.3z"/>
				<path d="M101.9,39.8c0.9,1.9,1.3,2.8,2.2,4.7c0.4,0.8,0.7,1.5,0.9,2.2c0,0,0,0,0.1,0c0.2-0.8,0.5-1.5,0.8-2.4
					c0.7-2.1,1.1-3.1,1.8-5.2c0.8-0.1,1.1-0.1,1.9-0.2c-1.4,3.8-2.2,5.6-3.6,9.4c-0.7,0.1-1,0.1-1.7,0.2c-1.7-3.4-2.5-5.1-4.2-8.4
					C100.7,40,101.1,39.9,101.9,39.8z"/>
				<path d="M112.2,43.4c0.1,2.2,1.7,2.9,3.6,2.8c1.3-0.1,2.1-0.4,2.8-0.7c0.1,0.5,0.2,0.7,0.4,1.1c-0.6,0.3-1.7,0.7-3.3,0.9
					c-3.1,0.3-5-1.3-5.1-4c-0.1-2.7,1.6-5,4.5-5.4c3.3-0.4,4.3,2.1,4.3,3.8c0,0.3,0,0.6,0,0.8C116.4,42.9,115,43.1,112.2,43.4z
					 M117.5,41.6c0-1-0.6-2.6-2.6-2.4c-1.9,0.2-2.6,1.8-2.7,3C114.3,42,115.4,41.9,117.5,41.6z"/>
				<path d="M126.5,37c0.6,1.8,0.9,2.7,1.5,4.5c0.3,1,0.6,1.9,0.9,2.9c0,0,0,0,0.1,0c0.2-1,0.5-2,0.8-3c0.6-1.9,0.9-2.9,1.5-4.9
					c0.6-0.1,0.9-0.1,1.5-0.2c0.7,1.8,1,2.7,1.7,4.5c0.4,1.1,0.7,2,1,3c0,0,0,0,0.1,0c0.1-1,0.4-2,0.7-3.1c0.5-1.9,0.8-2.9,1.3-4.8
					c0.7-0.1,1.1-0.1,1.8-0.2c-1.2,3.9-1.7,5.8-2.9,9.6c-0.7,0.1-1,0.1-1.7,0.1c-0.7-1.7-1-2.6-1.7-4.3c-0.4-1-0.7-1.9-1-3
					c0,0,0,0,0,0c-0.2,1.1-0.5,2.1-0.8,3.1c-0.6,1.8-0.9,2.7-1.5,4.5c-0.7,0.1-1,0.1-1.7,0.1c-1.4-3.6-2-5.3-3.4-8.9
					C125.4,37.1,125.8,37.1,126.5,37z"/>
				<path d="M143.1,32.8c0,0.6-0.4,1.1-1.1,1.2c-0.6,0.1-1.1-0.4-1.1-0.9c0-0.6,0.4-1.1,1.1-1.2C142.6,31.7,143,32.2,143.1,32.8z
					 M141.5,44.9c-0.1-3.7-0.2-5.6-0.4-9.4c0.7-0.1,1.1-0.1,1.8-0.2c0.1,3.8,0.2,5.6,0.4,9.4C142.6,44.9,142.2,44.9,141.5,44.9z"/>
				<path d="M148.1,32.2c0,1.1,0.1,1.6,0.1,2.7c1-0.1,1.6-0.1,2.6-0.2c0,0.5,0,0.8,0,1.3c-1,0.1-1.6,0.1-2.6,0.2
					c0.1,2,0.1,3.1,0.2,5.1c0,1.2,0.4,1.8,1.4,1.7c0.5,0,0.8-0.1,1.1-0.2c0.1,0.5,0.1,0.8,0.1,1.3c-0.3,0.2-0.9,0.3-1.6,0.3
					c-0.9,0.1-1.6-0.2-2-0.6c-0.5-0.5-0.8-1.3-0.8-2.4c-0.1-2.1-0.1-3.1-0.2-5.1c-0.6,0.1-0.9,0.1-1.6,0.1c0-0.5,0-0.8,0-1.3
					c0.6-0.1,0.9-0.1,1.6-0.1c0-0.9-0.1-1.4-0.1-2.3C147,32.6,147.4,32.5,148.1,32.2z"/>
				<path d="M152.7,30.1c0.7-0.1,1.1-0.1,1.8-0.2c0.1,2.4,0.1,3.6,0.2,6c0,0,0,0,0,0c0.3-0.5,0.7-1,1.3-1.3c0.5-0.3,1.2-0.6,1.9-0.6
					c1.4-0.1,3.5,0.5,3.7,3.9c0.1,2.3,0.1,3.4,0.2,5.7c-0.7,0-1.1,0.1-1.8,0.1c-0.1-2.2-0.1-3.3-0.2-5.5c-0.1-1.5-0.7-2.8-2.4-2.7
					c-1.2,0.1-2.1,1-2.4,1.9c-0.1,0.2-0.1,0.5-0.1,0.8c0.1,2.3,0.1,3.5,0.2,5.8c-0.7,0-1.1,0.1-1.8,0.1
					C153,38.5,152.9,35.7,152.7,30.1z"/>
				<path d="M173.7,37.9c0.1,3.6-2.4,5.3-4.8,5.5c-2.7,0.1-4.9-1.6-5-4.7c-0.1-3.2,2-5.3,4.8-5.5C171.6,33,173.6,34.9,173.7,37.9z
					 M165.7,38.5c0.1,2.1,1.4,3.6,3.2,3.5c1.8-0.1,3-1.8,2.9-4c-0.1-1.7-1-3.7-3.2-3.6C166.5,34.7,165.7,36.6,165.7,38.5z"/>
				<path d="M184.6,39.7c0,1,0.1,1.9,0.2,2.7c-0.7,0-1,0-1.6,0.1c-0.1-0.6-0.1-1-0.2-1.6c0,0,0,0,0,0c-0.5,0.8-1.5,1.9-3.3,2
					c-1.6,0.1-3.5-0.7-3.6-4.1c-0.1-2.3-0.1-3.4-0.2-5.7c0.7,0,1.1-0.1,1.8-0.1c0.1,2.2,0.1,3.3,0.2,5.4c0.1,1.9,0.7,3.1,2.4,3
					c1.2-0.1,2.1-0.9,2.4-1.7c0.1-0.3,0.1-0.6,0.1-0.9c-0.1-2.4-0.1-3.6-0.2-6.1c0.7,0,1.1-0.1,1.8-0.1
					C184.4,35.3,184.5,36.8,184.6,39.7z"/>
				<path d="M189.5,29.3c0,1.1,0.1,1.7,0.1,2.9c1.1-0.1,1.6-0.1,2.6-0.1c0,0.6,0,0.8,0,1.4c-1.1,0-1.6,0.1-2.6,0.1
					c0.1,2.2,0.1,3.2,0.2,5.4c0,1.2,0.4,1.9,1.4,1.9c0.5,0,0.8-0.1,1.1-0.2c0.1,0.5,0.1,0.8,0.1,1.4c-0.3,0.2-0.9,0.3-1.6,0.3
					c-0.9,0-1.6-0.2-2-0.7c-0.5-0.5-0.8-1.4-0.8-2.6c-0.1-2.2-0.1-3.3-0.2-5.4c-0.6,0-0.9,0-1.6,0.1c0-0.6,0-0.8,0-1.4
					c0.6,0,0.9,0,1.6-0.1c0-1-0.1-1.4-0.1-2.4C188.4,29.7,188.8,29.5,189.5,29.3z"/>
				<path d="M198.7,40c0.6,0.3,1.5,0.7,2.4,0.7c1.3,0,1.9-0.7,1.9-1.6c0-0.9-0.6-1.4-1.9-1.8c-1.8-0.6-2.7-1.6-2.8-2.8
					c-0.1-1.6,1.2-3,3.4-3.1c1,0,1.9,0.2,2.5,0.5c-0.2,0.5-0.2,0.8-0.4,1.4c-0.4-0.2-1.1-0.5-2.1-0.5c-1.1,0-1.7,0.7-1.6,1.4
					c0,0.8,0.6,1.2,2,1.7c1.8,0.6,2.7,1.5,2.8,3c0.1,1.8-1.3,3.1-3.7,3.1c-1.1,0-2.1-0.2-2.9-0.6C198.5,40.9,198.6,40.6,198.7,40z"
					/>
				<path d="M207.1,34.8c0-1.3-0.1-2.4-0.2-3.3c0.7,0,1,0,1.6-0.1c0.1,0.7,0.1,1.1,0.1,1.8c0,0,0,0,0,0c0.7-1.3,1.9-2.1,3.5-2.1
					c2.4-0.1,4.3,2,4.5,5.1c0.1,3.7-2,5.6-4.4,5.6c-1.3,0-2.5-0.6-3.2-1.6c0,0,0,0,0,0c0.1,2.2,0.1,3.3,0.2,5.6c-0.7,0-1.1,0-1.8,0
					C207.3,41.4,207.2,39.2,207.1,34.8z M209,37.5c0,0.3,0.1,0.5,0.1,0.8c0.4,1.3,1.5,2.2,2.8,2.1c1.9,0,3-1.7,2.9-4
					c-0.1-2.1-1.2-3.8-3.1-3.8c-1.3,0-2.4,1-2.7,2.4c-0.1,0.2-0.1,0.5-0.1,0.8C208.9,36.4,208.9,36.8,209,37.5z"/>
				<path d="M220,36.6c0.1,2.6,1.8,3.6,3.6,3.6c1.3,0,2.1-0.3,2.8-0.6c0.1,0.5,0.2,0.8,0.4,1.4c-0.6,0.3-1.7,0.7-3.3,0.7
					c-3.1,0-5-2.1-5.1-5.2c-0.1-3.1,1.6-5.6,4.5-5.7c3.3-0.1,4.3,2.9,4.3,4.9c0,0.4,0,0.7,0,0.9C224.3,36.6,222.8,36.6,220,36.6z
					 M225.3,35.2c0-1.2-0.6-3.1-2.6-3c-1.9,0-2.6,1.8-2.7,3.1C222.1,35.2,223.2,35.2,225.3,35.2z"/>
				<path d="M230.5,36.5c0.1,2.6,1.8,3.7,3.6,3.7c1.3,0,2.1-0.2,2.8-0.5c0.1,0.6,0.2,0.8,0.4,1.4c-0.6,0.3-1.7,0.7-3.3,0.6
					c-3.1,0-5-2.1-5.1-5.3c-0.1-3.2,1.6-5.7,4.5-5.7c3.3,0,4.3,3,4.3,5c0,0.4,0,0.7,0,0.9C234.7,36.5,233.3,36.5,230.5,36.5z
					 M235.8,35.1c0-1.2-0.6-3.1-2.6-3.1c-1.9,0-2.6,1.8-2.7,3.1C232.6,35.1,233.6,35.1,235.8,35.1z"/>
				<path d="M248.2,25.8c0.2,5.2,0.3,7.8,0.4,13c0,1,0.1,2,0.2,2.8c-0.7,0-1,0-1.6,0c-0.1-0.7-0.1-1.1-0.1-1.9c0,0,0,0,0,0
					c-0.5,1.2-1.7,2.1-3.4,2.1c-2.4,0-4.4-2.2-4.5-5.5c-0.1-3.5,1.9-5.7,4.3-5.7c1.5,0,2.6,0.8,3.1,1.6c0,0,0,0,0,0
					c-0.1-2.6-0.1-3.8-0.2-6.4C247.1,25.8,247.5,25.8,248.2,25.8z M246.7,35.2c0-0.2,0-0.6-0.1-0.8c-0.3-1.2-1.3-2.3-2.7-2.3
					c-1.9,0-3,1.8-2.9,4.1c0.1,2.2,1.1,4,3.1,4c1.2,0,2.3-0.8,2.6-2.3c0.1-0.3,0.1-0.5,0.1-0.8C246.7,36.3,246.7,35.9,246.7,35.2z"
					/>
				<path d="M255.7,25.7c0.7,0,1.1,0,1.8,0c0.2,6.4,0.3,9.6,0.5,16c-0.7,0-1.1,0-1.8,0C256,35.3,255.9,32.1,255.7,25.7z"/>
				<path d="M262.7,27.8c0,0.7-0.4,1.2-1.1,1.2c-0.6,0-1.1-0.6-1.1-1.2c0-0.7,0.4-1.2,1.1-1.2C262.2,26.6,262.7,27.1,262.7,27.8z
					 M261.1,41.8c-0.1-4.4-0.2-6.6-0.4-10.9c0.7,0,1.1,0,1.8,0c0.1,4.4,0.2,6.6,0.4,11C262.2,41.8,261.9,41.8,261.1,41.8z"/>
				<path d="M265.7,33.9c0-1.1-0.1-2.1-0.2-3c0.6,0,1,0,1.6,0c0.1,0.7,0.1,1.1,0.1,1.8c0,0,0,0,0.1,0c0.5-1,1.4-2,3.1-2
					c1.4,0,2.4,1,2.9,2.3c0,0,0,0,0,0c0.3-0.6,0.7-1.1,1.1-1.4c0.6-0.5,1.2-0.8,2.2-0.7c1.3,0,3.3,1.1,3.5,4.9
					c0.1,2.6,0.1,4,0.2,6.6c-0.7,0-1.1,0-1.8-0.1c-0.1-2.5-0.1-3.8-0.2-6.3c-0.1-2.1-0.8-3.5-2.3-3.5c-1,0-1.8,0.8-2.1,1.8
					c-0.1,0.3-0.1,0.6-0.1,1c0.1,2.7,0.1,4.1,0.2,6.9c-0.7,0-1.1,0-1.8-0.1c-0.1-2.7-0.1-4-0.2-6.6c-0.1-1.8-0.8-3.1-2.2-3.1
					c-1.1,0-1.9,1-2.2,2c-0.1,0.3-0.1,0.6-0.1,1c0.1,2.7,0.1,4,0.2,6.7c-0.7,0-1.1,0-1.8-0.1C265.9,38.7,265.8,37.1,265.7,33.9z"/>
				<path d="M284.9,28.3c0,0.7-0.4,1.2-1.1,1.2c-0.6,0-1.1-0.6-1.1-1.3c0-0.7,0.4-1.3,1.1-1.2C284.4,27,284.9,27.5,284.9,28.3z
					 M283.3,42.6c-0.1-4.5-0.2-6.7-0.4-11.2c0.7,0,1.1,0,1.8,0.1c0.1,4.5,0.2,6.8,0.4,11.3C284.4,42.6,284.1,42.6,283.3,42.6z"/>
				<path d="M289.9,28.3c0,1.3,0.1,2,0.1,3.3c1,0,1.6,0.1,2.6,0.1c0,0.6,0,0.9,0,1.6c-1,0-1.6-0.1-2.6-0.1c0.1,2.4,0.1,3.7,0.2,6.1
					c0,1.4,0.4,2.2,1.4,2.3c0.5,0,0.8,0,1.1-0.1c0.1,0.6,0.1,0.9,0.1,1.6c-0.3,0.1-0.9,0.2-1.6,0.2c-0.9,0-1.5-0.4-2-1
					c-0.5-0.6-0.8-1.6-0.8-3c-0.1-2.5-0.1-3.7-0.2-6.2c-0.6,0-0.9,0-1.6-0.1c0-0.6,0-0.9,0-1.6c0.6,0,0.9,0,1.6,0.1
					c0-1.1-0.1-1.6-0.1-2.7C288.9,28.6,289.2,28.5,289.9,28.3z"/>
				<path d="M299.2,35.5c0-1.3-0.1-2.5-0.2-3.6c0.6,0,1,0,1.6,0.1c0.1,0.9,0.1,1.4,0.1,2.3c0,0,0.1,0,0.1,0c0.4-1.5,1.5-2.4,2.7-2.4
					c0.2,0,0.4,0,0.5,0.1c0,0.8,0,1.2,0.1,2c-0.2-0.1-0.4-0.1-0.6-0.1c-1.3-0.1-2.2,1-2.4,2.6c0,0.3-0.1,0.6-0.1,1
					c0.1,2.4,0.1,3.7,0.2,6.1c-0.7,0-1.1-0.1-1.8-0.1C299.4,40.3,299.3,38.7,299.2,35.5z"/>
				<path d="M306.9,38.5c0.1,2.8,1.7,4.1,3.6,4.2c1.3,0.1,2.1-0.1,2.8-0.4c0.1,0.6,0.2,0.9,0.4,1.5c-0.6,0.3-1.7,0.6-3.3,0.5
					c-3.1-0.2-5-2.7-5.1-6.1c-0.1-3.5,1.6-6.1,4.5-6c3.3,0.2,4.3,3.6,4.3,5.7c0,0.4,0,0.8,0,1C311.2,38.8,309.8,38.7,306.9,38.5z
					 M312.2,37.3c0-1.3-0.6-3.5-2.6-3.6c-1.8-0.1-2.6,1.8-2.7,3.3C309,37.1,310.1,37.2,312.2,37.3z"/>
				<path d="M316.2,42.4c0.6,0.4,1.5,1,2.4,1c1.3,0.1,1.9-0.6,1.9-1.6c0-1-0.6-1.6-1.9-2.3c-1.8-0.9-2.7-2.1-2.8-3.5
					c-0.1-1.9,1.2-3.3,3.4-3.2c1,0.1,1.9,0.5,2.5,0.9c-0.2,0.6-0.2,0.9-0.4,1.5c-0.4-0.3-1.1-0.8-2.1-0.8c-1.1-0.1-1.7,0.6-1.6,1.5
					c0,1,0.6,1.4,2,2.1c1.8,0.9,2.7,2,2.7,3.7c0.1,2.1-1.3,3.4-3.6,3.2c-1.1-0.1-2.1-0.5-2.8-1C315.9,43.3,316,43,316.2,42.4z"/>
				<path d="M326.4,30.2c0,1.4,0.1,2,0.1,3.4c1,0.1,1.6,0.1,2.6,0.2c0,0.7,0,1,0,1.6c-1-0.1-1.6-0.1-2.6-0.2
					c0.1,2.5,0.1,3.8,0.2,6.4c0,1.5,0.4,2.3,1.4,2.4c0.5,0,0.8,0,1.1-0.1c0.1,0.6,0.1,1,0.1,1.6c-0.3,0.1-0.9,0.2-1.6,0.2
					c-0.8-0.1-1.5-0.5-2-1.1c-0.5-0.7-0.8-1.7-0.8-3.1c-0.1-2.6-0.1-3.9-0.2-6.4c-0.6,0-0.9-0.1-1.6-0.1c0-0.7,0-1,0-1.6
					c0.6,0,0.9,0.1,1.6,0.1c0-1.1-0.1-1.7-0.1-2.8C325.4,30.4,325.7,30.3,326.4,30.2z"/>
				<path d="M333.1,30.7c0,0.7-0.4,1.3-1.1,1.2c-0.6,0-1.1-0.7-1.1-1.4c0-0.8,0.4-1.3,1.1-1.3C332.6,29.3,333.1,29.9,333.1,30.7z
					 M331.6,45.8c-0.1-4.7-0.2-7.1-0.4-11.9c0.7,0.1,1.1,0.1,1.8,0.1c0.1,4.8,0.2,7.1,0.4,11.9C332.6,45.8,332.3,45.8,331.6,45.8z"
					/>
				<path d="M343.5,46.4c-0.5,0.3-1.5,0.5-2.9,0.4c-3-0.3-5.1-2.9-5.2-6.6c-0.1-3.7,1.9-6.2,5.2-5.9c1.1,0.1,2,0.5,2.5,0.8
					c-0.1,0.7-0.2,1-0.4,1.7c-0.4-0.3-1.1-0.7-2.1-0.7c-2.3-0.2-3.5,1.7-3.4,4.2c0.1,2.8,1.6,4.6,3.6,4.8c1,0.1,1.7-0.2,2.2-0.4
					C343.3,45.4,343.4,45.7,343.5,46.4z"/>
				<path d="M347.7,31.8c0,1.4,0.1,2.1,0.1,3.5c1,0.1,1.6,0.1,2.6,0.2c0,0.7,0,1,0,1.7c-1-0.1-1.6-0.1-2.6-0.2
					c0.1,2.6,0.1,3.9,0.2,6.5c0,1.5,0.4,2.4,1.4,2.5c0.5,0,0.8,0,1,0c0.1,0.7,0.1,1,0.1,1.7c-0.3,0.1-0.9,0.2-1.6,0.1
					c-0.8-0.1-1.5-0.5-2-1.1c-0.5-0.7-0.8-1.8-0.8-3.2c-0.1-2.6-0.1-3.9-0.2-6.6c-0.6-0.1-0.9-0.1-1.6-0.1c0-0.7,0-1,0-1.7
					c0.6,0.1,0.9,0.1,1.6,0.1c0-1.2-0.1-1.7-0.1-2.9C346.6,32,347,31.9,347.7,31.8z"/>
				<path d="M354.4,32.4c0,0.7-0.4,1.3-1.1,1.3c-0.6-0.1-1.1-0.7-1.1-1.5c0-0.8,0.4-1.3,1.1-1.3C353.9,31,354.3,31.6,354.4,32.4z
					 M352.8,47.8c-0.1-4.9-0.2-7.3-0.4-12.2c0.7,0.1,1.1,0.1,1.8,0.2c0.1,4.9,0.2,7.3,0.4,12.2C353.9,47.9,353.5,47.9,352.8,47.8z"
					/>
				<path d="M366.5,43.1c0.1,4.6-2.4,6.2-4.8,6c-2.7-0.3-4.9-3-5-6.8c-0.1-4.1,2-6.3,4.8-6C364.4,36.5,366.4,39.3,366.5,43.1z
					 M358.6,42.3c0.1,2.7,1.4,4.8,3.2,5c1.7,0.2,3-1.7,2.9-4.4c-0.1-2.1-1-4.8-3.1-5C359.4,37.7,358.5,40,358.6,42.3z"/>
				<path d="M368.7,40.6c0-1.3-0.1-2.3-0.2-3.4c0.6,0.1,1,0.1,1.6,0.2c0.1,0.8,0.1,1.2,0.2,2.1c0,0,0,0,0,0c0.5-1.1,1.6-2.2,3.2-2
					c1.4,0.2,3.6,1.4,3.7,5.7c0.1,3,0.1,4.5,0.2,7.5c-0.7-0.1-1.1-0.1-1.8-0.2c-0.1-2.9-0.1-4.3-0.2-7.2c-0.1-2-0.7-3.7-2.4-3.9
					c-1.2-0.1-2.1,0.8-2.4,2c-0.1,0.3-0.1,0.7-0.1,1c0.1,3,0.1,4.5,0.2,7.5c-0.7-0.1-1.1-0.1-1.8-0.2
					C368.9,46,368.8,44.2,368.7,40.6z"/>
				<path d="M380.1,48.7c0.5,0.5,1.5,1.1,2.4,1.2c1.3,0.2,1.9-0.6,1.9-1.6c0-1.1-0.6-1.8-1.9-2.5c-1.8-1-2.7-2.4-2.7-3.9
					c-0.1-2,1.2-3.5,3.3-3.3c1,0.1,1.9,0.6,2.5,1.1c-0.2,0.6-0.2,1-0.4,1.6c-0.4-0.4-1.1-0.9-2.1-1c-1.1-0.1-1.6,0.6-1.6,1.5
					c0,1,0.6,1.6,2,2.4c1.8,1,2.7,2.3,2.7,4.1c0.1,2.2-1.3,3.6-3.6,3.3c-1.1-0.1-2.1-0.6-2.8-1.2C379.9,49.7,379.9,49.4,380.1,48.7z
					"/>
				<path d="M394.2,47.9c0-0.3,0-0.4-0.1-0.7c-0.2-1.4,0.2-2.9,1.1-4.4c0.9-1.3,1.4-2.2,1.3-3.4c0-1.3-0.7-2.3-2-2.5
					c-0.7-0.1-1.6,0.1-2.1,0.6c-0.2-0.7-0.3-1-0.5-1.7c0.7-0.5,1.8-0.8,2.9-0.7c2.4,0.3,3.5,2.3,3.5,4.3c0,1.8-0.7,3-1.6,4.3
					c-0.9,1.2-1.2,2.4-1.1,3.7c0,0.3,0,0.4,0,0.7C395.2,48.1,394.8,48,394.2,47.9z M393.9,51.5c0-1,0.5-1.6,1.2-1.5
					c0.7,0.1,1.2,0.9,1.3,1.8c0,0.9-0.4,1.6-1.2,1.5C394.4,53.2,393.9,52.5,393.9,51.5z"/>
			</g>
		</g>
	</g>
	<g>
		<g>
			<path d="M431.7,51.6c-1-5.8-1.4-8.6-2.4-14.4c0.8,0.1,1.2,0.1,1.9,0.2c0.4,2.9,0.6,4.4,1.1,7.3c0.3,1.8,0.5,3.6,0.6,5
				c0,0,0,0,0,0c0.4-1.4,0.9-3,1.6-4.8c1-2.8,1.5-4.2,2.5-7c0.8,0.1,1.1,0.1,1.9,0.2c0.5,2.9,0.7,4.4,1.2,7.3
				c0.3,1.7,0.5,3.4,0.6,4.9c0,0,0,0,0,0c0.4-1.5,0.9-3.1,1.5-4.8c1-2.8,1.5-4.2,2.4-7c0.7,0.1,1.1,0.1,1.9,0.1
				c-2,5.5-3,8.3-5.1,13.8c-0.8-0.1-1.2-0.1-1.9-0.2c-0.5-3-0.7-4.5-1.2-7.5c-0.3-1.8-0.5-3.2-0.6-4.7c0,0,0,0,0,0
				c-0.4,1.4-0.8,2.7-1.5,4.5c-1.1,2.9-1.6,4.3-2.7,7.2C432.8,51.7,432.4,51.7,431.7,51.6z"/>
			<path d="M448,48.1c-0.1,2.5,1.4,3.6,3.3,3.8c1.3,0.1,2.2-0.1,2.9-0.3c0.1,0.5,0.1,0.8,0.2,1.3c-0.7,0.3-1.8,0.5-3.5,0.4
				c-3.2-0.2-4.9-2.4-4.7-5.5c0.2-3.1,2.2-5.3,5.2-5.1c3.3,0.2,4,3.2,3.9,5.1c0,0.4-0.1,0.7-0.1,0.9C452.3,48.4,450.9,48.3,448,48.1
				z M453.6,47.2c0.1-1.2-0.3-3-2.4-3.2c-1.9-0.1-2.8,1.5-3.1,2.8C450.3,47,451.4,47.1,453.6,47.2z"/>
			<path d="M458.2,38.6c0.7,0,1.1,0.1,1.9,0.1c-0.3,6-0.5,8.9-0.9,14.9c-0.8,0-1.1-0.1-1.9-0.1C457.7,47.6,457.9,44.6,458.2,38.6z"
				/>
			<path d="M469.8,53.8c-0.5,0.2-1.6,0.5-3,0.4c-3.1-0.2-5-2.3-4.9-5.4c0.2-3.1,2.5-5.3,5.8-5.1c1.1,0.1,2.1,0.4,2.6,0.6
				c-0.2,0.6-0.3,0.8-0.5,1.4c-0.4-0.3-1.1-0.5-2.1-0.6c-2.4-0.1-3.7,1.5-3.8,3.7c-0.1,2.3,1.3,3.9,3.4,4c1.1,0.1,1.8-0.2,2.3-0.4
				C469.6,53,469.7,53.2,469.8,53.8z"/>
			<path d="M481.4,49.5c-0.1,3.8-2.8,5.3-5.3,5.2c-2.8-0.1-4.9-2.2-4.7-5.4c0.2-3.4,2.5-5.3,5.3-5.2
				C479.6,44.2,481.5,46.4,481.4,49.5z M473.2,49.3c-0.1,2.2,1.1,4,3,4c1.8,0.1,3.2-1.5,3.3-3.8c0.1-1.7-0.7-3.9-2.9-4
				C474.3,45.4,473.3,47.3,473.2,49.3z"/>
			<path d="M483.8,47.3c0-1,0-1.9,0-2.8c0.7,0,1,0,1.6,0.1c0,0.7,0,1,0,1.6c0,0,0,0,0.1,0c0.6-0.9,1.6-1.8,3.3-1.8
				c1.4,0,2.4,0.9,2.8,2.1c0,0,0,0,0,0c0.3-0.6,0.7-1,1.2-1.3c0.6-0.4,1.3-0.7,2.3-0.7c1.4,0,3.3,0.9,3.3,4.5c0,2.4-0.1,3.6-0.1,6
				c-0.7,0-1.1,0-1.8,0c0-2.3,0.1-3.5,0.1-5.8c0-2-0.7-3.1-2.2-3.2c-1.1,0-1.9,0.7-2.2,1.6c-0.1,0.2-0.2,0.6-0.2,0.9
				c-0.1,2.5-0.1,3.8-0.2,6.3c-0.7,0-1.1,0-1.8,0c0.1-2.4,0.1-3.7,0.2-6.1c0-1.6-0.6-2.8-2.1-2.8c-1.2,0-2,0.9-2.4,1.8
				c-0.1,0.3-0.2,0.6-0.2,0.9c-0.1,2.5-0.1,3.7-0.2,6.1c-0.7,0-1.1,0-1.8-0.1C483.7,51.8,483.7,50.3,483.8,47.3z"/>
			<path d="M502.5,50.4c0,2.5,1.6,3.5,3.5,3.6c1.3,0,2.2-0.2,2.9-0.5c0.1,0.5,0.2,0.8,0.3,1.3c-0.7,0.3-1.8,0.6-3.4,0.6
				c-3.2,0-5.1-2.1-5-5.2c0-3.1,1.9-5.4,4.9-5.4c3.3,0,4.2,3,4.2,4.8c0,0.4,0,0.7-0.1,0.9C506.9,50.5,505.4,50.4,502.5,50.4z
				 M508,49.1c0-1.2-0.5-3-2.6-3c-1.9,0-2.7,1.7-2.9,3C504.7,49.1,505.8,49.1,508,49.1z"/>
			<path d="M518.9,42.2c0,1.2,0,1.8,0,2.9c1.1,0,1.6,0,2.7,0c0,0.6,0,0.8,0,1.4c-1.1,0-1.6,0-2.7,0c0,2.2,0,3.3,0,5.5
				c0,1.3,0.4,2,1.4,2c0.5,0,0.9-0.1,1.1-0.1c0,0.6,0.1,0.8,0.1,1.4c-0.4,0.1-0.9,0.3-1.7,0.3c-0.9,0-1.6-0.3-2-0.8
				c-0.5-0.5-0.7-1.4-0.7-2.6c0-2.2,0-3.3,0-5.5c-0.6,0-1,0-1.6,0c0-0.6,0-0.8,0-1.4c0.6,0,1,0,1.6,0c0-1,0-1.5,0-2.4
				C517.8,42.4,518.1,42.3,518.9,42.2z"/>
			<path d="M532.9,49.9c0.1,3.8-2.6,5.4-5.1,5.5c-2.8,0-5-2-5-5.2c0-3.4,2.2-5.4,5-5.4C530.8,44.7,532.8,46.8,532.9,49.9z
				 M524.7,50.1c0,2.2,1.3,3.9,3.2,3.9c1.8,0,3.1-1.7,3.1-4c0-1.7-0.9-3.9-3.1-3.9C525.6,46.2,524.7,48.2,524.7,50.1z"/>
			<path d="M550.9,54c-0.8,0.3-2.5,0.9-4.4,0.9c-2.2,0.1-4-0.4-5.4-1.7c-1.3-1.1-2.1-3-2.1-5.2c-0.1-4.2,2.7-7.4,7.5-7.5
				c1.6-0.1,2.9,0.3,3.6,0.5c-0.2,0.6-0.2,0.9-0.4,1.5c-0.8-0.3-1.7-0.5-3.2-0.5c-3.5,0.1-5.7,2.3-5.6,5.9c0.1,3.6,2.3,5.7,5.7,5.5
				c1.2,0,2-0.2,2.5-0.5c-0.1-1.7-0.1-2.5-0.1-4.2c-1.2,0-1.7,0.1-2.9,0.1c0-0.6,0-0.9,0-1.5c1.9-0.1,2.8-0.1,4.7-0.2
				C550.7,49.9,550.8,51.2,550.9,54z"/>
			<path d="M554.6,49.7c0.1,2.5,1.8,3.5,3.7,3.4c1.3-0.1,2.1-0.3,2.8-0.7c0.2,0.5,0.2,0.8,0.4,1.3c-0.6,0.3-1.8,0.7-3.4,0.8
				c-3.2,0.1-5.2-1.8-5.3-4.9s1.6-5.5,4.6-5.7c3.3-0.1,4.4,2.7,4.5,4.6c0,0.4,0,0.7,0,0.9C559,49.5,557.5,49.6,554.6,49.7z
				 M560.1,48.1c0-1.2-0.6-3-2.7-2.9c-1.9,0.1-2.6,1.8-2.7,3.1C556.8,48.3,557.9,48.2,560.1,48.1z"/>
			<path d="M564.1,47c-0.1-1.2-0.1-2.2-0.2-3.2c0.7,0,1,0,1.6-0.1c0.1,0.8,0.1,1.2,0.2,2c0,0,0.1,0,0.1,0c0.4-1.4,1.5-2.3,2.7-2.4
				c0.2,0,0.4,0,0.5,0c0,0.7,0.1,1,0.1,1.7c-0.2,0-0.4,0-0.6,0c-1.3,0.1-2.2,1.1-2.4,2.5c0,0.3-0.1,0.5,0,0.9
				c0.1,2.2,0.2,3.2,0.3,5.4c-0.7,0-1.1,0.1-1.9,0.1C564.3,51.2,564.3,49.8,564.1,47z"/>
			<path d="M571.1,46.2c-0.1-1-0.1-1.9-0.2-2.7c0.7,0,1-0.1,1.6-0.1c0.1,0.7,0.1,1,0.2,1.6c0,0,0,0,0.1,0c0.5-1,1.4-2,3.1-2.1
				c1.4-0.1,2.5,0.7,3,1.8c0,0,0,0,0,0c0.3-0.6,0.7-1.1,1.1-1.4c0.6-0.5,1.2-0.8,2.2-0.9c1.4-0.1,3.4,0.6,3.7,4.2
				c0.2,2.4,0.3,3.6,0.4,6c-0.7,0.1-1.1,0.1-1.8,0.1c-0.2-2.3-0.2-3.4-0.4-5.7c-0.1-1.9-0.9-3.1-2.4-3c-1.1,0.1-1.8,0.9-2.1,1.8
				c-0.1,0.3-0.1,0.6-0.1,0.9c0.2,2.5,0.2,3.8,0.4,6.3c-0.7,0-1.1,0.1-1.8,0.1c-0.2-2.4-0.2-3.6-0.4-6.1c-0.1-1.6-0.9-2.7-2.3-2.7
				c-1.2,0.1-2,1-2.2,2c-0.1,0.3-0.1,0.6-0.1,0.9c0.1,2.4,0.2,3.7,0.4,6.1c-0.7,0-1.1,0.1-1.8,0.1C571.4,50.7,571.3,49.2,571.1,46.2
				z"/>
			<path d="M595.1,52c-0.1-0.5-0.2-0.8-0.3-1.3c0,0,0,0-0.1,0c-0.5,0.8-1.6,1.6-3,1.8c-2.1,0.2-3.3-1.2-3.4-2.7
				c-0.2-2.4,1.9-4,5.9-4.3c0-0.1,0-0.1,0-0.2c-0.1-0.8-0.4-2.3-2.5-2.2c-0.9,0.1-1.9,0.4-2.6,1c-0.2-0.5-0.3-0.7-0.5-1.2
				c0.8-0.6,2-1.1,3.3-1.2c3.1-0.2,4.1,1.8,4.2,3.8c0.1,1.5,0.2,2.3,0.3,3.8c0.1,0.9,0.2,1.7,0.4,2.4
				C596.1,51.9,595.7,51.9,595.1,52z M594.4,46.8c-2,0.1-4.3,0.7-4.2,2.6c0.1,1.2,0.9,1.7,1.9,1.6c1.3-0.1,2.1-1,2.4-1.9
				c0-0.2,0.1-0.4,0.1-0.6C594.4,47.9,594.4,47.5,594.4,46.8z"/>
			<path d="M599,44.2c-0.1-1-0.2-1.9-0.3-2.7c0.7-0.1,1-0.1,1.6-0.1c0.1,0.7,0.2,1,0.3,1.7c0,0,0,0,0,0c0.4-1,1.5-2.1,3.2-2.2
				c1.4-0.1,3.7,0.5,4,4c0.2,2.4,0.3,3.6,0.6,6c-0.7,0.1-1.1,0.1-1.9,0.2c-0.2-2.3-0.3-3.5-0.5-5.8c-0.2-1.6-0.9-2.9-2.6-2.8
				c-1.2,0.1-2.1,1.1-2.3,2.1c-0.1,0.2-0.1,0.6-0.1,0.9c0.2,2.4,0.3,3.7,0.5,6.1c-0.7,0.1-1.1,0.1-1.9,0.2
				C599.4,48.6,599.2,47.2,599,44.2z"/>
			<path d="M617.9,45.3c-0.4,1.8-0.6,2.8-1,4.6c-0.8,0.1-1.1,0.1-1.9,0.2c1.4-5.8,2-8.7,3.4-14.6c0.9-0.1,1.3-0.1,2.2-0.2
				c2.5,5.4,3.8,8.1,6.4,13.5c-0.8,0.1-1.2,0.1-2,0.2c-0.8-1.7-1.2-2.5-2-4.3C620.9,45,619.9,45.1,617.9,45.3z M622.4,43.4
				c-0.7-1.6-1.1-2.3-1.8-3.9c-0.4-0.9-0.7-1.7-1-2.5c0,0,0,0,0,0c-0.1,0.9-0.3,1.7-0.4,2.6c-0.4,1.7-0.6,2.5-1,4.2
				C619.8,43.7,620.7,43.6,622.4,43.4z"/>
			<path d="M637,44.8c0.1,1,0.3,2,0.4,2.7c-0.7,0.1-1,0.1-1.7,0.2c-0.1-0.7-0.2-1-0.3-1.6c0,0,0,0,0,0c-0.4,0.9-1.3,2.1-3.2,2.3
				c-1.6,0.2-3.7-0.5-4.1-4c-0.3-2.4-0.4-3.5-0.7-5.9c0.7-0.1,1.1-0.1,1.8-0.2c0.3,2.2,0.4,3.4,0.7,5.6c0.2,1.9,1,3.1,2.7,2.9
				c1.3-0.2,2-1.1,2.3-2c0.1-0.3,0.1-0.6,0.1-1c-0.3-2.5-0.5-3.7-0.8-6.2c0.7-0.1,1.1-0.1,1.8-0.2C636.4,40.4,636.6,41.9,637,44.8z"
				/>
			<path d="M640.9,33.9c0.2,1.2,0.2,1.7,0.4,2.9c1.1-0.1,1.6-0.2,2.6-0.4c0.1,0.6,0.1,0.8,0.2,1.4c-1.1,0.1-1.6,0.2-2.6,0.4
				c0.3,2.2,0.4,3.3,0.7,5.4c0.2,1.2,0.6,1.9,1.7,1.8c0.5-0.1,0.8-0.2,1.1-0.3c0.1,0.5,0.2,0.8,0.3,1.4c-0.3,0.2-0.9,0.4-1.6,0.5
				c-0.9,0.1-1.6-0.1-2.1-0.5c-0.6-0.5-0.9-1.3-1.1-2.5c-0.3-2.2-0.4-3.3-0.7-5.5c-0.6,0.1-0.9,0.1-1.6,0.2
				c-0.1-0.6-0.1-0.8-0.2-1.4c0.6-0.1,0.9-0.1,1.6-0.2c-0.1-1-0.2-1.4-0.3-2.4C639.9,34.3,640.2,34.2,640.9,33.9z"/>
			<path d="M655.8,39.8c0.5,3.7-1.8,5.7-4.3,6.1c-2.8,0.4-5.2-1.3-5.6-4.5c-0.5-3.4,1.5-5.6,4.3-6C653.1,34.9,655.4,36.7,655.8,39.8
				z M647.7,41.1c0.3,2.2,1.8,3.7,3.6,3.4c1.8-0.3,2.9-2.1,2.5-4.4c-0.2-1.7-1.4-3.7-3.6-3.4C648.1,37,647.5,39.2,647.7,41.1z"/>
			<path d="M658.8,44.6c-0.1-0.7-0.2-1.7-0.3-2.6c-0.7-4.9-1.1-7.3-1.8-12.1c0.7-0.1,1.1-0.2,1.8-0.3c0.4,2.5,0.6,3.8,1,6.3
				c0,0,0,0,0,0c0.5-1.2,1.5-2.1,3.2-2.4c2.5-0.4,4.6,1.4,5.1,4.4c0.6,3.6-1.4,5.7-3.7,6.1c-1.5,0.2-2.8-0.2-3.7-1.4c0,0,0,0-0.1,0
				c0.1,0.7,0.1,1,0.2,1.7C659.8,44.4,659.5,44.5,658.8,44.6z M660.2,40.3c0,0.2,0.1,0.5,0.2,0.7c0.6,1.2,1.8,1.9,3.1,1.7
				c1.9-0.3,2.9-2,2.5-4.3c-0.3-2-1.6-3.6-3.6-3.3c-1.3,0.2-2.3,1.2-2.5,2.7c0,0.2,0,0.5,0,0.8C660,39.2,660,39.6,660.2,40.3z"/>
			<path d="M676.6,41.8c-0.1-0.5-0.2-0.7-0.4-1.2c0,0,0,0-0.1,0c-0.4,0.9-1.4,1.8-2.9,2c-2.1,0.3-3.4-0.9-3.6-2.4
				c-0.4-2.4,1.6-4.1,5.5-4.7c0-0.1,0-0.1,0-0.2c-0.1-0.8-0.6-2.3-2.7-1.9c-0.9,0.2-1.9,0.6-2.5,1.2c-0.2-0.5-0.4-0.7-0.6-1.1
				c0.7-0.7,1.9-1.2,3.2-1.4c3.1-0.5,4.2,1.4,4.5,3.5c0.3,1.5,0.4,2.2,0.6,3.7c0.1,0.9,0.3,1.7,0.6,2.4
				C677.6,41.6,677.3,41.7,676.6,41.8z M675.5,36.7c-2,0.3-4.3,1-3.9,3c0.2,1.2,1.1,1.6,2,1.5c1.3-0.2,2-1.2,2.2-2.1
				c0-0.2,0-0.4,0-0.6C675.7,37.7,675.6,37.4,675.5,36.7z"/>
			<path d="M678.6,26.3c0.7-0.1,1.1-0.2,1.8-0.3c0.4,2.5,0.7,3.7,1.1,6.2c0,0,0,0,0,0c0.2-0.6,0.6-1.1,1.1-1.5
				c0.5-0.4,1.1-0.7,1.8-0.9c1.4-0.2,3.7,0.2,4.3,3.6c0.4,2.4,0.7,3.6,1.1,5.9c-0.7,0.1-1.1,0.2-1.9,0.3c-0.4-2.3-0.6-3.4-1-5.7
				c-0.3-1.6-1.1-2.9-2.9-2.6c-1.2,0.2-2,1.2-2.1,2.3c-0.1,0.3,0,0.5,0,0.9c0.4,2.4,0.6,3.6,1.1,6c-0.7,0.1-1.1,0.2-1.9,0.3
				C680.1,35.1,679.6,32.2,678.6,26.3z"/>
			<path d="M691.5,31.6c-0.2-1-0.4-1.9-0.6-2.7c0.7-0.1,1-0.2,1.6-0.3c0.2,0.7,0.2,1,0.4,1.6c0,0,0,0,0,0c0.3-1,1.3-2.2,3-2.5
				c1.4-0.3,3.7,0.1,4.4,3.6c0.5,2.4,0.7,3.6,1.2,6c-0.7,0.1-1.1,0.2-1.9,0.4c-0.4-2.3-0.7-3.5-1.1-5.8c-0.3-1.6-1.2-2.8-2.9-2.5
				c-1.2,0.2-2,1.3-2.1,2.3c0,0.2,0,0.6,0,0.9c0.5,2.4,0.7,3.6,1.1,6c-0.7,0.1-1.1,0.2-1.9,0.3C692.3,36,692,34.5,691.5,31.6z"/>
		</g>
	</g>
	<rect x="-0.5" y="-0.5" class="st7" width="728" height="91"/>
</g>
</svg>
